<svg width="21" height="21" viewBox="0 0 21 21" fill="none" xmlns="http://www.w3.org/2000/svg">
<path d="M20.1723 10.9493C20.1723 10.2633 20.1156 9.57372 19.9946 8.89893H10.2894V12.7845H15.8471C15.6165 14.0377 14.8754 15.1463 13.7904 15.8508V18.372H17.1061C19.0532 16.6145 20.1723 14.0192 20.1723 10.9493Z" fill="#4285F4"/>
<path d="M10.2894 20.808C13.0644 20.808 15.4047 19.9144 17.1098 18.372L13.7941 15.8508C12.8716 16.4663 11.6807 16.8148 10.2931 16.8148C7.60879 16.8148 5.33278 15.0389 4.51613 12.6511H1.09454V15.2502C2.84125 18.6575 6.39895 20.808 10.2894 20.808Z" fill="#34A853"/>
<path d="M4.51234 12.6512C4.08133 11.398 4.08133 10.041 4.51234 8.78778V6.18872H1.09453C-0.364843 9.0399 -0.364843 12.399 1.09453 15.2502L4.51234 12.6512Z" fill="#FBBC04"/>
<path d="M10.2894 4.62029C11.7563 4.59804 13.1741 5.13936 14.2365 6.13301L17.1741 3.25216C15.314 1.53923 12.8451 0.597484 10.2894 0.627145C6.39895 0.627145 2.84125 2.77758 1.09454 6.18862L4.51235 8.78769C5.32521 6.39625 7.60501 4.62029 10.2894 4.62029Z" fill="#FE2C25"/>
</svg>
